<svg xmlns="http://www.w3.org/2000/svg" width="88.1892" height="30" viewBox="0 0 88.1892 30"><defs><style>.a{fill:#faefdf;stroke:var(--closest);stroke-miterlimit:10;}</style></defs><path class="a" d="M25.5855,15.2564c2.043.84,4.4143,1.7265,4.4888,4.904a6.5358,6.5358,0,0,1-4.7,6.7566,20.38,20.38,0,0,1-6.8188,1.5218C13.7,28.4273,8.8465,27.91,3.9908,27.6172c-1.5539-.0937-2.022-.9-2.01-2.3862q.0859-10.3257.0018-20.6521c-.0092-1.2439.2423-1.967,1.6444-2.1373C10.2186,1.6411,16.84.9793,23.3948,2.3656c3.7966.8029,6.2438,3.4494,5.6992,6.9965a7.9477,7.9477,0,0,1-1.1913,2.8313A37.6,37.6,0,0,1,25.5855,15.2564Zm-11.1689.4263-.014.1153a6.1766,6.1766,0,0,0-1.5939.0266c-.7026.1941-1.9263.5634-1.9307.8716-.0213,1.496-.2319,3.8272.5873,4.3312,2.0018,1.231,4.6355,1.9848,6.8427.2433a4.6264,4.6264,0,0,0,1.4826-3.1748c.02-.6465-1.1828-1.5864-2.0292-1.9361A13.0668,13.0668,0,0,0,14.4166,15.6827Zm.2281-2.1632c.6833,0,1.5077.2427,2.0216-.0492,1.156-.6569,2.71-1.3856,3.0876-2.4406.5044-1.4113-.59-2.8183-2.2586-3.0249a14.9562,14.9562,0,0,0-4.6458.1058,2.613,2.613,0,0,0-1.5849,1.8557c-.37,3.5438-.291,3.5519,3.38,3.553Z"/><path class="a" d="M48.5709,22.4209c-.45.62-.7186.8364-.7821,1.1-.9683,4.0246-4.3282,4.9146-8.0914,4.5237a7.1621,7.1621,0,0,1-6.3639-6.4776c-.405-4.5019-.4295-9.0437-.44-13.5688-.0012-.552,1.0574-1.5133,1.7034-1.5842a43.7138,43.7138,0,0,1,6.1838-.1117c1.3291.0437,1.7269.9183,1.7,2.1861a81.287,81.287,0,0,0,.0739,9.08,4.71,4.71,0,0,0,2,3.1782c.7586.4548,2.3227.0229,3.2983-.4654a2.9348,2.9348,0,0,0,1.0021-2.2248c.1109-3.1775.0158-6.3615.0783-9.5416.0116-.595.3556-1.6751.6182-1.6973A70.627,70.627,0,0,1,56.77,6.5907c.2982.0055.8279.8922.832,1.3741.0525,6.1731.0527,12.3472-.0336,18.52-.0054.3815-.8234,1.04-1.3007,1.0755a28.99,28.99,0,0,1-5.2716-.0185,2.5347,2.5347,0,0,1-1.5938-1.427A21.8548,21.8548,0,0,1,48.5709,22.4209Z"/><path class="a" d="M70.68,11.35c1.1425-2.4054,2.29-4.4948,5.0417-5.0671,5.3492-1.1127,9.9769,1.3378,10.37,7.65.25,3.9962.01,8.0205.0681,12.031.0191,1.322-.543,1.627-1.7777,1.6781-7.4384.31-7.4112.336-7.4558-6.9617a28.2908,28.2908,0,0,0-.4337-5.38c-.4068-2.02-2.0313-2.5289-3.8893-2.1858a2.7761,2.7761,0,0,0-2.6,2.9417q.0063.1025.02.2042c.1063,3.1754-.0223,6.3578.0519,9.535.0321,1.3736-.4345,1.9186-1.8455,1.8408a46.702,46.702,0,0,0-4.8181-.0036c-1.625.0788-2.13-.6543-2.117-2.1776.05-5.6761-.0232-11.3536.0824-17.0283A2.3333,2.3333,0,0,1,62.753,6.6857a17.3748,17.3748,0,0,1,4.7454-.3578c1.5184.0937,2.813.6594,2.6113,2.6764A7.33,7.33,0,0,0,70.68,11.35Z"/></svg>