<svg xmlns="http://www.w3.org/2000/svg" width="108.2753" height="30" viewBox="0 0 108.2753 30"><defs><style>.a{stroke:var(--closest);stroke-miterlimit:10;}</style></defs><path class="a" d="M50.7908,14.7477a10.4871,10.4871,0,0,1-.1515,2.3689H33.3505a6.2131,6.2131,0,0,0,6.3,4.7387,7.1587,7.1587,0,0,0,5.8975-2.7728l4.2843,3.9826c-2.1167,2.6714-5.6954,4.6372-10.6353,4.6372-7.2075,0-12.6513-5.0406-12.6513-12.7528,0-7.46,5.1916-12.6518,12.1979-12.6518C45.9514,2.2977,50.7908,7.54,50.7908,14.7477ZM38.9452,8.0943a5.4437,5.4437,0,0,0-5.5444,4.2846H44.2379A5.1906,5.1906,0,0,0,38.9452,8.0943Zm29.184-5.7966c5.2932,0,8.9719,2.8232,8.9719,10.3835V27.2991H70.4984V14.3445c0-4.6876-1.6628-6.149-4.7381-6.149-3.3256,0-5.5942,2.3181-5.5942,6.7038v12.4H53.5629V2.7009h6.6032v3.176h.1a10.15,10.15,0,0,1,7.8629-3.5792ZM92.6265,27.7023c-7.8122,0-13.0546-5.3433-13.0546-12.7023S84.8143,2.2977,92.6265,2.2977c7.6622,0,13.1053,5.1418,13.1053,12.7023S100.2887,27.7023,92.6265,27.7023Zm0-5.898A6.4493,6.4493,0,0,0,99.0287,15c0-4.0322-2.7222-6.8045-6.4022-6.8045-3.8312,0-6.4009,2.9233-6.4009,6.8045C86.2256,18.8309,88.897,21.8043,92.6265,21.8043ZM2.5434,27.2991V2.2977h9.0383c7.9086,0,12.9926,5.1411,12.9926,12.536,0,7.3593-4.7664,12.4654-12.8866,12.4654ZM9.04,21.348h2.189a6.2244,6.2244,0,0,0,6.32-6.5143c0-3.7327-2.542-6.5849-5.8256-6.5849H9.04Z"/></svg>